<?xml version="1.0" standalone="no"?>
<!DOCTYPE svg PUBLIC "-//W3C//DTD SVG 20010904//EN"
 "http://www.w3.org/TR/2001/REC-SVG-20010904/DTD/svg10.dtd">
<svg version="1.0" xmlns="http://www.w3.org/2000/svg"
 width="650.000000pt" height="650.000000pt" viewBox="0 0 650.000000 650.000000"
 preserveAspectRatio="xMidYMid meet">
<metadata>
Created by potrace 1.11, written by Peter Selinger 2001-2013
</metadata>
<g transform="translate(0.000000,650.000000) scale(0.100000,-0.100000)"
fill="#000000" stroke="none">
<path d="M1078 5176 c-92 -74 -171 -137 -177 -140 -11 -7 -181 75 -215 103
-18 15 -18 15 1 -18 10 -19 27 -35 38 -37 10 -2 30 -12 44 -24 14 -11 41 -27
59 -35 17 -9 32 -17 32 -19 0 -3 -268 -221 -418 -340 l-23 -18 16 38 c9 22 23
55 30 74 48 126 136 311 173 359 l25 33 -64 -6 c-81 -7 -102 -12 -131 -27 -65
-33 -132 -153 -171 -305 -12 -46 -25 -84 -30 -84 -4 0 -35 14 -68 31 -34 17
-63 29 -65 26 -4 -4 50 -187 96 -322 24 -72 31 -82 66 -100 21 -11 41 -21 43
-22 3 -2 -39 -61 -64 -90 -5 -6 -21 -25 -33 -42 -23 -29 -25 -30 -52 -16 -15
8 -30 21 -33 29 -10 25 12 79 47 121 34 39 35 40 51 20 16 -20 16 -20 5 3 -6
12 -14 22 -19 22 -4 0 -18 18 -30 41 -13 22 -24 39 -26 37 -6 -5 -63 -289 -70
-343 -4 -27 -8 -61 -10 -75 -4 -24 -4 -24 11 -5 96 129 103 135 137 130 l34
-6 36 93 c20 51 36 87 37 80 0 -11 75 -51 127 -66 13 -4 84 12 190 45 92 28
184 55 203 61 19 6 258 78 530 160 272 83 509 154 525 158 17 5 94 28 173 51
l143 43 -7 66 c-17 154 3 229 68 254 26 9 29 15 24 39 -3 16 -15 49 -26 75
-21 48 -31 48 -54 0 -6 -12 -33 -34 -59 -47 -64 -32 -225 -36 -337 -9 -41 10
-190 43 -330 73 -140 31 -262 58 -270 60 -9 3 -83 -50 -182 -129z"/>
<path d="M2350 5107 c1 -7 11 -56 23 -110 17 -73 28 -102 42 -110 11 -5 24
-17 29 -25 5 -9 11 -11 15 -4 4 7 31 0 75 -19 38 -16 70 -28 72 -27 1 2 -29
26 -67 53 -62 45 -69 53 -70 85 -2 97 -29 141 -101 164 -11 3 -18 0 -18 -7z"/>
<path d="M3910 5059 c-416 -114 -680 -206 -1030 -356 -160 -69 -434 -200 -470
-226 -8 -5 7 10 34 35 46 42 48 46 43 84 -10 64 -19 119 -21 121 -2 3 -55 -45
-187 -168 -67 -63 -131 -122 -143 -132 -11 -10 -73 -67 -136 -127 -63 -59
-126 -118 -140 -130 -32 -27 -10 -17 60 30 125 83 469 285 440 257 -60 -56
-330 -260 -477 -361 -144 -98 -244 -156 -368 -216 -170 -82 -155 -81 -270 -16
-55 31 -103 56 -106 56 -3 0 -2 -24 2 -52 12 -79 16 -196 8 -247 -6 -44 -6
-45 47 -94 63 -58 95 -106 96 -146 1 -38 -11 -53 -83 -102 -110 -74 -310 -285
-580 -609 -240 -289 -268 -324 -263 -332 3 -4 15 -8 26 -8 12 0 19 -2 16 -6
-3 -3 -47 2 -98 11 -51 9 -94 14 -96 12 -2 -2 12 -61 31 -130 19 -70 35 -133
35 -140 0 -7 4 -18 9 -26 10 -15 21 -8 116 75 28 24 59 49 68 57 10 7 20 28
23 47 11 69 100 170 240 272 40 29 73 58 73 64 1 6 27 33 59 60 148 126 261
256 362 419 93 149 135 178 253 177 154 -2 354 -109 647 -345 69 -56 136 -111
150 -123 14 -12 66 -57 115 -100 215 -187 374 -348 501 -506 37 -46 70 -84 73
-86 4 -1 47 11 96 28 49 16 92 30 97 30 4 0 7 -15 6 -32 -1 -49 11 -98 37
-143 36 -63 59 -79 110 -76 25 1 57 -5 74 -14 30 -15 31 -15 37 11 8 32 -9
327 -20 341 0 1 -52 -16 -115 -38 -63 -22 -116 -38 -118 -36 -4 5 31 107 51
145 52 100 -22 152 -222 155 -108 2 -113 3 -106 22 4 11 8 43 8 72 -1 57 -23
96 -98 166 -93 88 -318 215 -581 327 -235 100 -364 178 -471 285 -91 91 -127
163 -127 255 1 89 47 200 113 271 8 9 254 137 545 284 l530 267 370 114 370
114 69 -30 c38 -17 72 -28 76 -23 4 4 15 49 24 98 9 50 19 101 22 115 2 14 9
47 15 73 6 26 9 50 7 53 -3 2 -22 -2 -44 -10 -185 -67 -268 -96 -271 -92 -5 5
252 130 347 169 78 31 144 41 145 20 0 -38 25 -27 100 46 52 50 65 74 48 84
-5 2 -87 -18 -183 -44z"/>
<path d="M2455 4808 c3 -18 7 -43 8 -55 2 -28 9 -29 31 -4 17 19 17 21 -9 55
-15 20 -29 36 -32 36 -2 0 -1 -15 2 -32z"/>
<path d="M5580 4540 c-1 -74 -2 -146 -3 -160 -2 -39 13 -134 23 -150 8 -13 12
-11 25 8 14 19 25 22 88 22 l72 0 -28 23 c-35 28 -55 95 -52 172 4 64 4 63
-99 190 l-24 30 -2 -135z"/>
<path d="M4865 4549 c-27 -16 -85 -43 -128 -61 -88 -36 -86 -39 34 -57 128
-19 232 -23 226 -9 -29 71 -71 158 -76 157 -3 -1 -28 -14 -56 -30z"/>
<path d="M4518 4515 c4 -22 7 -55 7 -74 0 -30 -4 -36 -30 -43 -16 -4 -46 -9
-65 -10 -48 -1 -82 -21 -118 -65 -70 -90 -76 -140 -20 -169 37 -19 154 -27
201 -13 31 9 60 36 52 48 -2 4 -6 54 -10 112 l-7 106 62 22 63 23 -52 28 c-28
16 -60 39 -70 52 l-19 23 6 -40z"/>
<path d="M5551 4108 c-31 -58 -76 -120 -117 -163 -193 -203 -289 -308 -292
-316 -2 -5 -7 -9 -11 -9 -5 0 5 62 20 138 33 156 35 194 14 212 -56 47 -276
-249 -684 -923 -39 -65 -71 -120 -71 -122 0 -2 -17 -22 -37 -43 -93 -96 -91
-100 12 -24 51 38 40 25 -67 -84 -70 -71 -143 -146 -162 -167 l-36 -38 0 70 0
71 -27 -6 c-91 -19 -156 -56 -169 -96 -10 -34 -20 -19 -48 80 -16 53 -32 102
-35 108 -4 8 -40 -1 -116 -29 -60 -22 -112 -42 -114 -43 -2 -2 -10 -31 -18
-66 -8 -35 -28 -86 -44 -114 -16 -28 -29 -61 -29 -73 0 -66 82 -141 243 -222
65 -32 124 -59 131 -59 16 0 67 105 60 124 -10 27 68 96 227 202 242 160 312
243 315 372 l1 62 94 94 c99 98 110 110 254 271 50 55 101 112 115 126 14 14
56 59 94 99 38 40 66 66 63 56 -4 -10 -16 -53 -27 -97 -11 -43 -25 -91 -30
-106 -14 -38 -7 -28 108 155 l94 148 221 136 c296 183 269 157 221 211 -22 25
-52 70 -68 101 -16 31 -30 56 -32 56 -1 0 -25 -42 -53 -92z"/>
<path d="M4495 3992 c-134 -15 -299 -83 -343 -140 l-26 -34 95 5 c102 6 186
31 229 70 29 25 85 96 79 100 -2 1 -17 1 -34 -1z"/>
<path d="M6020 3926 c-391 -139 -692 -343 -948 -643 -62 -73 -74 -94 -103
-180 -17 -54 -34 -105 -37 -113 -4 -8 34 35 83 95 221 273 380 398 506 399 46
1 62 -4 93 -27 20 -16 44 -42 53 -60 l16 -32 18 80 c23 108 45 160 82 191 35
29 84 28 119 -2 44 -40 89 -132 118 -241 10 -41 31 -56 45 -33 8 14 281 227
297 232 16 6 -26 78 -74 129 -76 81 -151 93 -281 46 -37 -14 -67 -21 -65 -16
2 5 45 54 96 109 51 55 90 100 85 100 -4 0 -51 -16 -103 -34z"/>
<path d="M4050 3778 c-104 -60 -267 -247 -398 -458 -34 -55 -39 -72 -36 -110
1 -25 4 -112 5 -195 l3 -150 40 125 39 125 135 120 c73 66 147 130 163 143
l29 23 87 -45 c47 -26 88 -45 89 -43 2 2 -5 32 -16 67 -33 111 -62 272 -63
352 -1 44 -6 78 -12 78 -5 0 -35 -14 -65 -32z"/>
<path d="M1050 3622 c0 -14 66 -73 73 -66 13 13 7 21 -33 48 -22 14 -40 23
-40 18z"/>
<path d="M4991 3259 c-44 -83 -51 -119 -14 -82 19 19 70 150 61 158 -2 2 -23
-32 -47 -76z"/>
<path d="M5974 3288 c-357 -316 -615 -570 -625 -617 -9 -41 6 -71 35 -71 31 0
135 54 212 110 56 42 254 198 264 209 3 3 34 31 70 61 36 30 84 73 108 95 l43
40 -16 85 c-22 121 -24 130 -34 130 -5 0 -31 -19 -57 -42z"/>
<path d="M4795 2839 c-61 -62 -104 -108 -97 -105 38 22 72 24 104 6 l34 -18
41 114 c22 63 37 114 34 114 -4 0 -56 -50 -116 -111z"/>
<path d="M3601 2793 c-26 -93 -25 -90 -8 -73 13 13 35 120 25 120 -2 0 -10
-21 -17 -47z"/>
<path d="M4792 2608 c-23 -57 -51 -130 -63 -163 -12 -33 -35 -79 -50 -103 -34
-50 -35 -58 -11 -65 9 -3 87 -34 172 -70 l156 -64 -8 70 c-4 39 -6 73 -4 74 2
2 37 -16 77 -40 83 -48 313 -167 325 -167 4 0 -4 12 -18 28 -73 78 -57 149 47
211 22 14 42 26 44 27 2 2 -19 28 -47 59 -30 32 -59 77 -71 109 -20 54 -30
134 -19 152 4 5 -33 -10 -80 -33 -148 -72 -263 -88 -321 -45 -14 10 -37 39
-51 65 -14 25 -28 49 -32 52 -3 3 -24 -40 -46 -97z"/>
<path d="M6361 2609 c-48 -21 -104 -59 -98 -65 2 -3 41 13 85 35 82 39 93 66
13 30z"/>
<path d="M5910 2454 c-146 -29 -283 -56 -304 -59 -40 -7 -115 -32 -129 -45 -9
-8 151 -100 174 -100 24 0 273 102 376 153 118 59 194 107 168 106 -11 -1
-139 -25 -285 -55z"/>
<path d="M4449 2359 c-1 -19 -2 -45 -4 -59 -1 -14 -5 -77 -9 -140 -4 -63 -9
-128 -12 -143 -6 -36 2 -33 53 23 35 39 163 230 163 245 0 3 -37 23 -82 45
-45 23 -88 46 -95 52 -10 8 -13 3 -14 -23z"/>
<path d="M561 2251 c-57 -52 -62 -60 -52 -79 16 -30 46 -27 69 6 23 33 63 132
54 132 -4 -1 -36 -27 -71 -59z"/>
<path d="M4384 1938 c-32 -39 -129 -149 -164 -187 -64 -69 -165 -184 -177
-201 -13 -19 -12 -19 19 -14 18 4 35 7 38 6 72 -1 81 -13 86 -112 2 -46 6 -85
8 -87 2 -2 39 63 81 144 43 81 89 168 104 193 14 24 26 49 27 55 1 5 4 55 8
109 4 55 9 103 12 107 2 4 0 10 -5 13 -5 3 -21 -9 -37 -26z"/>
<path d="M4185 1308 c-10 -26 -2 -43 12 -26 7 8 8 19 3 28 -8 12 -10 12 -15
-2z"/>
</g>
</svg>
